P1
# CREATOR: GIMP PNM Filter Version 1.1
109 128
0000000000000000000000000000000000000000000000000011111110000000000000
0000000000000000000000000000000000000000000000000000000000000000000000
0000000000000001111111111111110000000000000000000000000000000000000000
0000000000000000000000000000000000000000000000000001111111111111111111
1100000000000000000000000000000000000000000000000000000000000000000000
0000000000000000000111111111111111111111110000000000000000000000000000
0000000000000000000000000000000000000000000000000000000001111111111111
1111111111111000000000000000000000000000000000000000000000000000000000
0000000000000000000000000111111111111111111111111111100000000000000000
0000000000000000000000000000000000000000000000000000000000000001111111
1111111111111111111111100000000000000000000000000000000000000000000000
0000000000000000000000000000000111111111111111111111111011111110000000
0000000000000000000000000000000000000000000000000000000000000000000000
1111111111111111111111100011111110000000000000000000000000000000000000
0000000000000000000000000000000000000011111111111111111111111100001111
1100000000000000000000000000000000000000000000000000000000000000000000
0000000111111111111111111111111001111111110000000000000000000000000000
0000000000000000000000000000000000000000000000111111111111111111111111
1111111111100000000000000000000000000000000000000000000000000000000000
0000000000000011111111111111111111111111111111111110000000000000000000
0000000000000000000000000000000000000000000000000000011111111111111111
1111111111111111111100000000000000000000000000000000000000000000000000
0000000000000000000000111111111111111111111111111111111111100000000000
0000000000000000000000000000000000000000000000000000000000000111111111
1111111111111111111111111111000000000000000000000000000000000000000000
0000000000000000000000000000001111111111111111111111111111111111111000
0000000000000000000000000000000000000000000000000000000000000000000001
1111111111111111111111111111111111111000000000000000000000000000000000
0000000000000000000000000000000000000011111111111111111111100001111111
1111110000000000000000000000000000000000000000000000000000000000000000
0000000111110000111111111100000000111111111110000000000000000000000000
0000000000000000000000000000000000000000000000111100000011111111000000
0000111111111100000000000000000000000000000000000000000000000000000000
0000000000000001110000000111111110000000000111111111100000000000000000
0000000000000000000000000000000000000000000000000000001110000000011111
1000000000001111111111000000000000000000000000000000000000000000000000
0000000000000000000000011100111000111111000011110000111111111000000000
0000000000000000000000000000000000000000000000000000000000000011101110
1001111110001110010001111111110000000000000000000000000000000000000000
0000000000000000000000000000000111011101001111110001111011001111111110
0000000000000000000000000000000000000000000000000000000000000000000000
1110111011011111100111111010011111111100000000000000000000000000000000
0000000000000000000000000000000000000001110111111011111100111111100011
1111111000000000000000000000000000000000000000000000000000000000000000
0000000011100111100000000000111111000111111111100000000000000000000000
0000000000000000000000000000000000000000000000011100011011000011000111
1110001111111111000000000000000000000000000000000000000000000000000000
0000000000000000111100100100000000000111110011111111111000000000000000
0000000000000000000000000000000000000000000000000000000111111000000000
0000000011111111111111110000000000000000000000000000000000000000000000
0000000000000000000000001111100000000000000000000011111111111110000000
0000000000000000000000000000000000000000000000000000000000000001111000
0000000000000000000001111111111100000000000000000000000000000000000000
0000000000000000000000000000000011100000000000000000000000000111111111
1000000000000000000000000000000000000000000000000000000000000000000000
0111000000000000000000000000001111111111100000000000000000000000000000
0000000000000000000000000000000000000000111100000000000000000000011001
1111111111000000000000000000000000000000000000000000000000000000000000
0000000001111100000000000000000111100011111111111000000000000000000000
0000000000000000000000000000000000000000000000001111110000000000000111
1000001111101111111000000000000000000000000000000000000000000000000000
0000000000000000011111100000000000111000000001111100111111000000000000
0000000000000000000000000000000000000000000000000000000011111111100001
1111000000110011111100011111000000000000000000000000000000000000000000
0000000000000000000000000111111111111111100000011110011111100001111000
0000000000000000000000000000000000000000000000000000000000000000111111
1000000000000011110000011111100011111000000000000000000000000000000000
0000000000000000000000000000000001110111100000000001111000000011111111
1111110000000000000000000000000000000000000000000000000000000000000000
0011100111110000011111100000000011111111111111000000000000000000000000
0000000000000000000000000000000000000000111100011111111111110000000000
0111111111111110000000000000000000000000000000000000000000000000000000
0000000011110000011111111110000000000000011111111111111000000000000000
0000000000000000000000000000000000000000000000111110000011111111100000
0000000000011111111111111000000000000000000000000000000000000000000000
0000000000000001111000000011111110000000000000000011111111111111000000
0000000000000000000000000000000000000000000000000000011111000000000111
1000000000000000000011111111111111000000000000000000000000000000000000
0000000000000000000001111100000000000000000000000000000000011111111111
1111000000000000000000000000000000000000000000000000000000001111100000
0000000000000000000000000000011111111111111000000000000000000000000000
0000000000000000000000000000111110000000000000000000000000000000000011
1111111111111000000000000000000000000000000000000000000000000000001111
1100000000000000000000000000000000000111111111111111100000000000000000
0000000000000000000000000000000000011111100000000000000000000000000000
0000000111111111111111100000000000000000000000000000000000000000000000
0001111111000000000000000000000000000000000000111110111111111100000000
0000000000000000000000000000000000000000011111111000000000000000000000
0000000000000001111110011111111100000000000000000000000000000000000000
0000000001111111110000000000000000000000000000000000001111111001111111
1100000000000000000000000000000000000000000000001111111110000000000000
0000000000000000000000001111111011111111110000000000000000000000000000
0000000000000000111111111100000000000000000000000000000000000001111111
0011111111100000000000000000000000000000000000000000001111111111000000
0000000000000000000000000000000001111111001111111110000000000000000000
0000000000000000000000011100111110000000000000000000000000000000000000
0011111110011111111110000000000000000000000000000000000000000111001111
1000000000000000000000000000000000000000001111111001111111110000000000
0000000000000000000000000000001110111111000000000000000000000000000000
0000000000011111111001111111110000000000000000000000000000000000000011
1011111100000000000000000000000000000000000000000001111111001111111110
0000000000000000000000000000000000000111111111000000000000000000000000
0000000000000000000011111111001111111110000000000000000000000000000000
0000001111111110000000000000000000000000000000000000000000001111111001
1111111100000000000000000000000000000000000011111111110000000000000000
0000000000000000000000000000011111111011111111100000000000000000000000
0000000000000111111111000000000000000000000000000000000000000000000001
1111110011111111100000000000000000000000000000000000111111111000000000
0000000000000000000000000000000000000011111110011111111100000000000000
0000000000000000000011111111100000000000000000000000000000000000000000
0000000111111110111111111100000000000000000000000000000000011111111100
0000000000000000000000000000000000000000000000111111110011111111100000
0000000000000000000000000001111111111000000000000000000000000000000000
0000000000000001111111100111111111000000000000000000000000000000001111
1111100000000000000000000000000000000000000000000000000111111100111111
1110000000000000000000000000000000111101111100000000000000000000000000
0000000000000000000000001111111001111111110000000000000000000000000000
0001111011111000000000000000000000000000000000000000000000000001111111
0011111111110000000000000000000000000000011111011111000000000000000000
0000000000000000000000000000000011111110011111111110000000000000000000
0000000000111101111110000000000000000000000000000000000000000000000000
0111111101111111111100000000000000000000000000001111101111110000000000
0000000000000000000000000000000000000000111111101111111111100000000000
0000000000000000011111011111100000000000000000000000000000000000000000
0000000001111111011111111111000000000000000000000000000111111011111000
0000000000000000000000000000000000000000000000001111110011111111111100
0000000000000000000000001111111011110000000000000000000000000000000000
0000000000000000011111101111111111111000000000000000000000000001111111
0111100000000000000000000000000000000000000000000000000011111101111111
1111110000000000000000000000000011111110111100000000000000000000000000
0000000000000000000000000111110001111111111110000000000000000000000000
0111111100111000000000000000000000000000000000000000000000000000000000
0000111111111100000000000000000000000000111111110011000000000000000000
0000000000000000000000000000000000011111110011111111100000000000000000
0000000001111111110000000000000000000000000000000000000000000000000000
0011111111111111111111000000000000000000000000001111111111000000000000
0000000000000000000000000000000000000000011111111111111111110000000000
0000000000000000111100011111000000000000000000000000000000000000000000
0000000001111111111111111111100000000000000000000000000111100001111100
0000000000000000000000000000000000000000000001111111111111111111111110
0000000000000000000000011100000001111100000000000000000000000000000000
0000000000000111111111111111111111111100000000000000000000000011100000
0001111100000000000000000000000000000000000000000000110001111111111111
1111111000000000000000000000000110000000000111110000000000000000000000
0000000000000000000011000011111111111111110111100000000000000000000001
1000000000000111110000000000000000000000000000000000000000011000001111
1111111111000111000000000000000000000011000000000000011111000000000000
0000000000000000000000000000110000011111111111110000011100000000000000
0000000110000000000000111111100000000000000000000000000000000000000110
0000011111111111000000111000000000000000000001100000000000000011111110
0000000000000000000000000000000000001100000001111111100000000111000000
0000000011111111000000000000000011111110000000000000000000000000000000
0000011000000000111100000000001110000000000011111111110000000000000000
0011111110000000000000000000000000000000000011000000000000000000000001
1100000000001111000000000000000000000000011111111100000000000000000000
0000000000000110000000000000000000000001100000000011100000000000000000
0000000000011111111100000000000000000000000000000000110000000000000000
0000000011000000000110000000000000000000000000000001111111110000000000
0000000000000000000001100000000000000000000000011100000000111000000000
0000000000000000000011111111100000000000000000000000000000001100000000
0000000000000000011100000000110000000000000000000000000000001111111110
0000000000000000000000000000011000000000000000000000000011110000000110
0000000000000000000000000000001111111100000000000000000000000000000011
1000000000000000000000000011111000001110000000000000000000000000000001
1111111000000000000000000000000000000111000000000000000000000000000011
1100011100000000000000000000000000000001111110000000000000000000000000
0011101110000000000000000000000000000001110001100000000000000000000000
0000000011111000000000000000000000000000111101110000000000000000000000
0000000001110011100000000000000000000000000000001110000000000000000000
0000000001111011100000000000000000000000000000000110011100000000000000
0000000000000000011000000000000000000000000000011111011100000000000000
0000000000000000001100110000000000000000000000000000000001100000000000
0000000000000001111100111000000000000000000000000000000011101110000000
0000000000000000000000000011100110000000000000000000111111100111000000
0000000000000000000000001110011100000000000000000000000000000000001100
1110000000000000000111111111001110000000000000000000000000000111000011
0000000000000000000000000000000000011100111100000000001111111111111001
1000000000000000000000000000111100001100000000000000000000000000000000
0000011100111111111111111111111111100111000000000000000000000000011110
0000011000000000000000000000000000000000000011100111111111111111111111
1111001110000000000000000000000111110000000011000000000000000000000000
0000000000000111101111111111111111111111111001110000000000000000000011
1110000000000111100000000000000000000000000000000000111101111111111111
1111111111110011100000000000000000011111000000000000011111110000000000
0000000000000000000001111011111111111111111111111110011100000000000000
0001111000000000000000000111111110000000000000000000000000001111111111
1111111111111111111111111000000000000000111110000000000000000000000011
1111110000000000000000000000111111111111111111111111111111111111100000
0000000011110000000000000000000000000000011111111100000000000000000111
1111100000000000000000000000011111100000000000111100000000000000000000
0000000000000011111111100000000000011111000000000000000000000000000001
1111100000000011110000000000000000000000000000000000000001111111100000
0011111000000000000000000000000000000011111111000001111100000000000000
0000000000000000000000000000011111111111111110000000000000000000000000
0000000011111111111111110000000000000000000000000000000000000000000000
1111111111111000000000000000000000000000000000001111111111111100000000
0000000000000000000000000000000000000000001111111110000000000000000000
0000000000000000001111111111100000000000000000000000000000000000000000
0000000000000011110000000000000000000000000000000000000000000111100000
0000000000000000000000